<?xml version="1.0" encoding="UTF-8" standalone="no"?>
<!DOCTYPE svg PUBLIC "-//W3C//DTD SVG 1.1//EN" "http://www.w3.org/Graphics/SVG/1.1/DTD/svg11.dtd">
<svg width="100%" height="100%" viewBox="0 0 28 28" version="1.1" xmlns="http://www.w3.org/2000/svg" xmlns:xlink="http://www.w3.org/1999/xlink" xml:space="preserve" xmlns:serif="http://www.serif.com/" style="fill-rule:evenodd;clip-rule:evenodd;stroke-linejoin:round;stroke-miterlimit:2;">
    <path d="M14.8,28L14.8,24.5C14.8,24.035 14.4,23.8 14.1,23.8C13.8,23.8 13.388,23.969 13.388,24.5L13.388,28L14.8,28M24.2,10.2L24.2,10.6L3.9,10.6L3.9,10.2L24.2,10.2ZM11.5,13.3L8.7,13.3L8.7,21.3L9.5,21.3L9.5,17.4C9.5,17.1 9.8,16.8 10.1,16.8C10.4,16.8 10.7,17.1 10.7,17.4L10.7,21.3L11.5,21.3L11.5,13.3ZM15.4,13.3L12.6,13.3L12.6,21.3L13.4,21.3L13.4,17.4C13.4,17.1 13.7,16.8 14,16.8C14.3,16.8 14.6,17.1 14.6,17.4L14.6,21.3L15.4,21.3L15.4,13.3ZM16.5,21.3L16.5,13.3L19.3,13.3L19.3,21.3L18.5,21.3L18.5,17.4C18.5,17.1 18.2,16.8 17.9,16.8C17.6,16.8 17.3,17.1 17.3,17.4L17.3,21.3L16.5,21.3ZM5.5,14.1L6.7,14.1L6.7,15.3L5.5,15.3L5.5,14.1ZM9.5,14.1L10.7,14.1L10.7,15.3L9.5,15.3L9.5,14.1ZM13.4,14.1L14.6,14.1L14.6,15.3L13.4,15.3L13.4,14.1ZM21.3,14.1L22.5,14.1L22.5,15.3L21.3,15.3L21.3,14.1ZM17.3,14.1L18.5,14.1L18.5,15.3L17.3,15.3L17.3,14.1ZM25.2,14.1L26.4,14.1L26.4,15.3L25.2,15.3L25.2,14.1ZM27.3,18.7C27.3,18.7 26.415,21.459 24.3,23.5L24.3,13.3C24.3,13.3 24.3,13.2 24.4,13.2L27.2,13.2L27.3,13.3L27.3,18.7ZM1.6,14.1L2.8,14.1L2.8,15.3L1.6,15.3L1.6,14.1ZM3.6,23.4C2.3,22 1.4,20.4 0.7,18.6L0.7,13.2C0.7,13.2 0.7,13.1 0.8,13.1L3.6,13.1C3.6,13.1 3.7,13.1 3.7,13.2L3.7,23.4L3.6,23.4ZM0.1,12.1C0.1,11.8 0.2,11.6 0.2,11.3L3.3,11.3L2.9,12.1L0.1,12.1ZM0.3,11.2C0.3,11.1 0.4,10.9 0.4,10.8L3.4,10.8L3.2,11.2L0.3,11.2ZM27.8,11.4C27.8,11.7 27.9,11.9 27.9,12.2L25.1,12.2L24.7,11.4L27.8,11.4ZM27.7,10.8C27.7,10.9 27.8,11.1 27.8,11.2L25,11.2L24.8,10.8L27.7,10.8ZM19.5,21.3L19.5,13.2L19.2,12.7L19.2,11.7L16.5,11.7L16.5,12.7L16.2,13.2L16.2,21.3L15.5,21.3L15.5,13.2L15.2,12.7L15.2,11.7L12.7,11.7L12.7,12.7L12.4,13.2L12.4,21.3L11.7,21.3L11.7,13.2L11.4,12.7L11.4,11.7L8.7,11.7L8.7,12.7L8.4,13.2L8.4,21.3L7.8,21.3L7.8,13.2L7.5,12.7L7.5,11.7L4.8,11.7L4.8,12.7L4.5,13.2L7.5,13.2L7.5,21.2L6.7,21.2L6.7,17.3C6.7,17 6.4,16.7 6.1,16.7C5.8,16.7 5.5,17 5.5,17.3L5.5,21.2L3.8,21.2L3.8,10.7L24.1,10.7L24.1,21.2L24.1,13.2L24.1,21.2L22.4,21.2L22.4,17.3C22.4,17 22.1,16.7 21.8,16.7C21.5,16.7 21.2,17 21.2,17.3L21.2,21.2L20.4,21.2L20.4,13.2L23.4,13.2L23.1,12.7L23.1,11.7L20.4,11.7L20.4,12.7L20.1,13.2L20.1,21.3L19.5,21.3ZM7.4,9L12.4,9C12.4,8.5 12.7,8 13.1,7.7L13.1,9L13.5,9L13.5,7.5C13.7,7.5 13.8,7.4 14,7.4C14.2,7.4 14.3,7.4 14.5,7.5L14.5,9L14.9,9L14.9,7.7C15.3,8 15.6,8.5 15.6,9L20.6,9L14,6.2C11.8,7.1 9.6,8 7.4,9ZM25.1,9.2L2.9,9.2L3.2,9.6L24.7,9.6L25.1,9.2ZM14,0C20.5,0 26,4.4 27.6,10.4L24.7,10.4L24.7,9.9C25.4,9.9 25.6,9.3 25.5,8.7L14,3.6L2.5,8.7C2.5,9.3 2.7,9.9 3.3,9.9L3.3,10.4L0.4,10.4C2,4.4 7.5,0 14,0ZM14,4.2L25.1,9L22.8,9L14,5.2L5.2,9L2.9,9L14,4.2ZM5.3,25L5.3,24.4C5.3,23.9 5.7,23.5 6.2,23.5C6.4,23.5 6.7,23.6 6.8,23.8C6.9,23.9 7,24.1 7,24.4L7,26.2C7.7,26.6 8.4,26.9 9.2,27.2L9.2,24.4C9.2,24.2 9.444,23.5 10.1,23.5C10.878,23.5 11.1,24.2 11.1,24.4L11.1,27.7C11.7,27.8 12.3,27.9 13,28L13,24.5C13,24.2 13.1,23.9 13.3,23.7C13.5,23.5 13.8,23.4 14.1,23.4C14.4,23.4 14.7,23.5 14.9,23.7C15.1,23.9 15.2,24.2 15.2,24.5L15.2,28C15.8,27.9 16.5,27.9 17.1,27.7L17.1,24.4C17.1,24.103 17.264,23.493 17.893,23.493C18.652,23.493 18.8,24.085 18.8,24.4L18.8,27.2C19.6,26.9 20.2,26.6 21,26.2L21,24.4C21,23.9 21.4,23.5 21.9,23.5C22.1,23.5 22.4,23.6 22.5,23.8C22.7,24 22.8,24.2 22.8,24.4L22.8,25C23.3,24.6 23.8,24.2 24.2,23.7L24.2,21.8L3.8,21.8L3.8,23.7C4.3,24.1 4.8,24.5 5.3,25Z" style="fill:white;"/>
</svg>
