<?xml version="1.0" encoding="UTF-8"?>
<svg xmlns="http://www.w3.org/2000/svg" viewBox="0 0 2000 2000">
  <defs>
    <style>
      .cls-1 {
        fill: #294f8f;
      }

      .cls-2 {
        fill: none;
        stroke: #294f8f;
        stroke-miterlimit: 10;
        stroke-width: 20px;
      }
    </style>
  </defs>
  <g id="_Слой_9" data-name="Слой 9">
    <path class="cls-1" d="M1482.33,1237.67l-86.37,22.39c-30.75-1.88-107.71-4.43-138.46,2.44v7s67.67-11,134.83-8.5l52,4,54.17,303.75s-261.48-10.35-472.8,134.26c-6.01-4.31-15.06-6.57-25.2-6.64h0c-.08,0-.17,0-.25,0-.08,0-.17,0-.25,0h0c-10.14,.08-19.19,2.34-25.2,6.65-211.32-144.61-472.8-134.26-472.8-134.26l54.17-303.75,52-4c67.17-2.5,134.83,8.5,134.83,8.5v-7c-30.75-6.87-107.71-4.32-138.46-2.44l-86.37-22.39-80.47,368.92,534.63,124.04c5.82,7.34,16.02,12.7,27.68,12.85h0c.08,.01,.17,0,.25,0,.08,0,.17,0,.25,0h0c11.65-.16,21.85-5.53,27.68-12.87l534.63-124.04-80.47-368.92Z"/>
    <path class="cls-1" d="M1001.01,1661.22c148.94-130.9,419.99-137.55,419.99-137.55-265.04-14.37-397.6,99.1-417.77,118.01l7.43-64.35-10.42,10.42-10.42-10.42,7.43,64.35c-20.16-18.92-152.73-132.38-417.77-118.01,0,0,271.04,6.65,419.99,137.55h1.53Z"/>
  </g>
  <g id="_Слой_4" data-name="Слой 4">
    <g>
      <rect class="cls-1" x="1261.03" y="543.15" width="53.67" height="72.67"/>
      <circle class="cls-1" cx="1287.86" cy="629.65" r="7.33"/>
      <path class="cls-1" d="M1287.86,496.15c-53.02,0-96,42.98-96,96s42.98,96,96,96,96-42.98,96-96-42.98-96-96-96Zm38,140.25c0,6.6-5.4,12-12,12h-52c-6.6,0-12-5.4-12-12v-92.5c0-6.6,5.4-12,12-12h52c6.6,0,12,5.4,12,12v92.5Z"/>
    </g>
    <path class="cls-1" d="M888,679.06c-40.87,0-74,33.13-74,74s33.13,74,74,74,74-33.13,74-74-33.13-74-74-74Zm-24,110.83h-16v-12.83c0-4.42,3.58-8,8-8s8,3.58,8,8v12.83Zm19.67,0h-16v-32.5c0-4.42,3.58-8,8-8s8,3.58,8,8v32.5Zm20.33,0h-16v-52.5c0-4.42,3.58-8,8-8s8,3.58,8,8v52.5Zm20,0h-16v-72.67c0-4.42,3.58-8,8-8s8,3.58,8,8v72.67Z"/>
    <path class="cls-1" d="M579.5,682.17c-43.08,0-78,34.92-78,78s34.92,78,78,78,78-34.92,78-78-34.92-78-78-78Zm41.83,100.83l-5.83,27.17h-76.67l-2.33-1.33v-3.17l37-43v-1.5l-37-44.17v-3.83l78.04,.12,1.38,1.38v23.08l-1.75,1.75h-4l-3.17-2.83-.33-2.83-1-3.17-1.83-3.67-3-2h-31.17l24,30.33v2.83l-27.24,33.97s11.26,.03,11.76,.03h13.81l12.38-.06,5.59-6.07,5.72-8.83,4.16-.21,1.5,1.5v4.5Z"/>
    <g>
      <path class="cls-1" d="M820.21,594.19h-19.51c-1.03,0-1.87,.84-1.87,1.87s.84,1.87,1.87,1.87h19.51c1.03,0,1.87-.84,1.87-1.87s-.84-1.87-1.87-1.87Z"/>
      <circle class="cls-1" cx="810.46" cy="622.53" r="4.01"/>
      <path class="cls-1" d="M820.21,583.77h-19.51c-1.03,0-1.87,.84-1.87,1.87s.84,1.87,1.87,1.87h19.51c1.03,0,1.87-.84,1.87-1.87s-.84-1.87-1.87-1.87Z"/>
      <path class="cls-1" d="M776.48,575.88h-57.13c-2.65,0-4.81,2.17-4.81,4.81v35.98c0,2.65,2.17,4.81,4.81,4.81h57.13c2.65,0,4.81-2.17,4.81-4.81v-35.98c0-2.65-2.17-4.81-4.81-4.81Zm-.4,36.89c0,2.65-2.17,4.81-4.81,4.81h-46.71c-2.65,0-4.81-2.17-4.81-4.81v-28.17c0-2.65,2.17-4.81,4.81-4.81h46.71c2.65,0,4.81,2.17,4.81,4.81v28.17Z"/>
      <path class="cls-1" d="M770.36,527.77c-44.29,0-80.19,35.9-80.19,80.19s35.9,80.19,80.19,80.19,80.19-35.9,80.19-80.19-35.9-80.19-80.19-80.19Zm15.04,94.42c0,2.65-2.17,4.81-4.81,4.81h-23.25v3.21h22.65v2.41h-64.15v-2.41h22.65v-3.21h-23.25c-2.65,0-4.81-2.17-4.81-4.81v-45.31c0-2.65,2.17-4.81,4.81-4.81h65.35c2.65,0,4.81,2.17,4.81,4.81v45.31Zm41.5,3.14c0,5.29-4.33,9.62-9.62,9.62h-13.63c-5.29,0-9.62-4.33-9.62-9.62v-42.77c0-5.29,4.33-9.62,9.62-9.62h13.63c5.29,0,9.62,4.33,9.62,9.62v42.77Z"/>
    </g>
    <g>
      <path class="cls-1" d="M1096.2,767.2h-6.83c-.72,0-1.82,.61-2.45,1.37l-1.44,1.71c-.63,.76-.57,1.37,.15,1.37h6.83c.72,0,1.82-.61,2.45-1.37l1.44-1.71c.63-.76,.57-1.37-.15-1.37Z"/>
      <path class="cls-1" d="M1107.7,767.2h-6.83c-.72,0-1.82,.61-2.45,1.37l-1.44,1.71c-.63,.76-.57,1.37,.15,1.37h6.83c.72,0,1.82-.61,2.45-1.37l1.44-1.71c.63-.76,.57-1.37-.15-1.37Z"/>
      <path class="cls-1" d="M1091.05,765.15h6.83c.72,0,1.82-.61,2.45-1.37l1.44-1.71c.63-.76,.57-1.37-.15-1.37h-6.83c-.72,0-1.82,.61-2.45,1.37l-1.44,1.71c-.63,.76-.57,1.37,.15,1.37Z"/>
      <path class="cls-1" d="M1119.2,767.2h-6.83c-.72,0-1.82,.61-2.45,1.37l-1.44,1.71c-.63,.76-.57,1.37,.15,1.37h6.83c.72,0,1.82-.61,2.45-1.37l1.44-1.71c.63-.76,.57-1.37-.15-1.37Z"/>
      <path class="cls-1" d="M1113.12,760.69h-6.83c-.72,0-1.82,.61-2.45,1.37l-1.44,1.71c-.63,.76-.57,1.37,.15,1.37h6.83c.72,0,1.82-.61,2.45-1.37l1.44-1.71c.63-.76,.57-1.37-.15-1.37Z"/>
      <path class="cls-1" d="M1114.05,765.15h6.83c.72,0,1.82-.61,2.45-1.37l1.44-1.71c.63-.76,.57-1.37-.15-1.37h-6.83c-.72,0-1.82,.61-2.45,1.37l-1.44,1.71c-.63,.76-.57,1.37,.15,1.37Z"/>
      <path class="cls-1" d="M1130.7,767.2h-6.83c-.72,0-1.82,.61-2.45,1.37l-1.44,1.71c-.63,.76-.57,1.37,.15,1.37h6.83c.72,0,1.82-.61,2.45-1.37l1.44-1.71c.63-.76,.57-1.37-.15-1.37Z"/>
      <path class="cls-1" d="M1116.22,694.11c-32.56,0-58.96,26.4-58.96,58.96s26.4,58.96,58.96,58.96,58.96-26.4,58.96-58.96-26.4-58.96-58.96-58.96Zm38.39,62.73c0,1.51-.62,2.88-1.62,3.88l-13.3,15.89c-2.53,3.02-7.14,5.48-10.26,5.48h-59.53c-3.12,0-3.6-2.47-1.08-5.48l17.23-20.59v-35.74c0-3.02,2.47-5.48,5.48-5.48h57.59c3.02,0,5.48,2.47,5.48,5.48v36.56Z"/>
      <path class="cls-1" d="M1142.55,721.24h-44.45c-1.51,0-2.74,1.23-2.74,2.74v29.14c0,1.51,1.23,2.74,2.74,2.74h44.45c1.51,0,2.74-1.23,2.74-2.74v-29.14c0-1.51-1.23-2.74-2.74-2.74Zm-17.7,25.53l-7.52-7.52-2.68,4.75-5.99-15.84,14.74,7.08-4.05,2.28,7.36,7.36-1.87,1.87Z"/>
      <path class="cls-1" d="M1136.12,760.69h-6.83c-.72,0-1.82,.61-2.45,1.37l-1.44,1.71c-.63,.76-.57,1.37,.15,1.37h6.83c.72,0,1.82-.61,2.45-1.37l1.44-1.71c.63-.76,.57-1.37-.15-1.37Z"/>
    </g>
    <path class="cls-1" d="M1000,354.33c-55.23,0-100,44.77-100,100s44.77,100,100,100,100-44.77,100-100-44.77-100-100-100Zm16.97,128.16l-12.37-12.37-5.21-5.21-10.59-10.59-4.97-4.97-12.61-12.61h0s-.03-.03-.05-.05c-9.71-9.71-25.44-9.71-35.15,0-9.71,9.71-9.71,25.44,0,35.15,9.71,9.71,25.44,9.71,35.15,0l.05,.05,14.29-14.29,10.59,10.59-14.29,14.29c-15.55,15.55-40.77,15.55-56.32,0-15.55-15.55-15.55-40.77,0-56.32,15.55-15.55,40.77-15.55,56.32,0l12.61,12.61,4.97,4.97,10.59,10.59,5.21,5.21,12.36,12.36h0s0,0,0,0c9.71,9.71,25.44,9.71,35.15,0,9.71-9.71,9.71-25.44,0-35.15-9.71-9.71-25.44-9.71-35.15,0h0s0,0,0,0l-14.28,14.28-10.59-10.59,14.28-14.28h0c15.55-15.55,40.77-15.55,56.32,0,15.55,15.55,15.55,40.77,0,56.32-15.55,15.55-40.77,15.55-56.32,0Z"/>
    <g>
      <circle class="cls-1" cx="1480.9" cy="771.27" r="5.78"/>
      <path class="cls-1" d="M1523.48,715.33h-88.27c-1.43,0-2.61,1.17-2.61,2.61v88.27c0,1.43,1.17,2.61,2.61,2.61h88.27c1.43,0,2.61-1.17,2.61-2.61v-88.27c0-1.43-1.17-2.61-2.61-2.61Zm-63.26,58.64s-1.65,7.38-2.82,10.2c-1.17,2.82-3.86,7.88-7.77,11.17-2.23,1.87-3.35,2.61-5.84,4.03-.24,.17-.5,.32-.78,.44-.04,.02-.07,.04-.11,.06,0,0,0,0-.01,0-.6,.26-1.26,.4-1.96,.4-2.75,0-4.98-2.23-4.98-4.98,0-2.24,1.48-4.11,3.51-4.74,.03-.02,.05-.03,.08-.05,6.38-3.57,8.44-8.48,8.44-8.48,0,0,1.75-3.79,3.01-11.47,1.26-7.68,3.11-20.99,4.47-25.07,1.36-4.08,1.46-5.49,4.28-9.81,1.28-1.96,2.62-3.98,9.91-8.36h0c.8-.54,1.76-.87,2.8-.87,2.75,0,4.98,2.23,4.98,4.98,0,1.81-.97,3.38-2.42,4.25-.05,.05-.12,.09-.2,.14-2.47,1.3-9.1,5.61-10.9,14.72l-3.69,23.42Zm34.82,7.19c0,2.3-1.88,4.18-4.18,4.18-1.35,0-2.55-.66-3.32-1.67-1.98,1.06-4.24,1.67-6.64,1.67-7.77,0-14.07-6.3-14.07-14.07s6.3-14.07,14.07-14.07c2.06,0,4.02,.45,5.78,1.25v-12.87c0-2.3,1.88-4.18,4.18-4.18s4.18,1.88,4.18,4.18v35.57Zm26.76-2.46c1.43,1.7,1.21,4.26-.49,5.69-1.7,1.43-4.26,1.21-5.69-.49l-5.46-6.49-5.46,6.49c-1.43,1.7-3.99,1.92-5.69,.49-1.7-1.43-1.92-3.99-.49-5.69l6.37-7.57-6.37-7.57c-1.43-1.7-1.21-4.26,.49-5.69,1.7-1.43,4.26-1.21,5.69,.49l5.46,6.49,5.46-6.49c1.43-1.7,3.99-1.92,5.69-.49,1.7,1.43,1.92,3.99,.49,5.69l-6.36,7.57,6.36,7.57Z"/>
      <path class="cls-1" d="M1480.65,687.8c-41.74,0-75.57,33.83-75.57,75.57s33.83,75.57,75.57,75.57,75.57-33.83,75.57-75.57-33.83-75.57-75.57-75.57Zm51.47,120.52c0,3.58-2.93,6.51-6.51,6.51h-92.51c-3.58,0-6.51-2.93-6.51-6.51v-92.51c0-3.58,2.93-6.51,6.51-6.51h92.51c3.58,0,6.51,2.93,6.51,6.51v92.51Z"/>
    </g>
  </g>
  <g id="_Слой_6" data-name="Слой 6">
    <g>
      <rect class="cls-1" x="883.5" y="796.06" width="9" height="72.27"/>
      <rect class="cls-1" x="992.67" y="540" width="14.67" height="328.33"/>
      <rect class="cls-1" x="576.46" y="814" width="6.08" height="54"/>
      <polygon class="cls-1" points="1165.4 868.33 1186.06 868.33 1205.65 857.03 1293.33 806.4 1293.33 806.4 1293.33 652 1283 652 1283 800.43 1207.73 843.89 1165.4 868.33"/>
      <rect class="cls-1" x="1475.8" y="819.25" width="9.7" height="48.75"/>
      <rect class="cls-1" x="1113.38" y="783.92" width="5.67" height="84.08"/>
      <rect class="cls-1" x="767.31" y="652" width="6.11" height="216"/>
      <path class="cls-1" d="M1362.25,1189.41l-88.92,17.54v-53.61h-10.75v85.79l-174.25,100.6v-62.19l59-31.86-.03-.05h.03v-65.71l46.05-26.59h-11.93l-34.11,19.7v-19.7h-6.67v88.36l-52.33,28.26v-33.79h-6.67v37.39l-34.34,18.54h0v71.3l-17.62,10.18v-220.24h-10.08v226.06l-12.29,7.1v-233.16h-14.67v67.74l-18.67-10.78v-56.96h-10.08v51.14l-32.67-18.86v-32.28h-2.75v33.87h0s35.42,20.45,35.42,20.45v90.08l-47.92-27.66v-116.73h-2.75v115.14l-116.24-67.11v-48.28h-6.11v44.75l-77.51-44.75h-21l98.51,56.88v58.61l-98.86-57.08v-58.41h-6.08v61.92h0s104.94,60.59,104.94,60.59v40.85s122.35,70.64,122.35,70.64v98.72l2.75,2.75v-99.88l23.33,13.47v109.75l6.67,6.67v-120.27h0s-30-17.33-30-17.33v-98.77l47.92,27.66v226.62l10.08,10.08v-230.88l18.67,10.78v238.77l7.33,7.33,7.33-7.33v-166.32l12.29-7.1v161.12l10.08-10.08v-156.86l17.62-10.18v149.41l6.67-6.67v-146.59l27.67-15.97v134.9l6.67-6.67v-132.08l184.99-106.81h0v-35.59l91.67-18.08h0s0,0,0,0v-38.33h-2.75v36.07Zm-449,189.96l-116.24-67.11v-98.77l116.24,67.11v98.77Zm79.42-65.05l-18.67-10.78v-90.08l18.67,10.78v90.08Zm89,29.25l-27.67,15.97v-63.47l27.67-14.94v62.44Z"/>
    </g>
  </g>
  <g id="_Слой_2" data-name="Слой 2">
    <circle class="cls-2" cx="1000" cy="1000" r="990"/>
    <circle class="cls-2" cx="1000.5" cy="1000" r="820.5"/>
  </g>
  <g id="_Слой_7" data-name="Слой 7">
    <g>
      <path class="cls-1" d="M669.07,897.77h44.55v231.93h-42.47v-106.78c0-13.29,.69-34.72,2.08-64.31h-.69c-7.97,13.52-21.84,34.38-41.6,62.58l-75.58,108.51h-44.55v-231.93h42.47v106.78c0,16.99-.69,38.37-2.08,64.14h.69c7.39-12.25,21.03-32.7,40.91-61.36l76.27-109.55Z"/>
      <path class="cls-1" d="M888.35,1067.47c5.08-18.26,11.38-37.85,18.89-58.76l40.04-110.94h59.63v231.93h-42.47v-117.52c0-17.22,.69-37.21,2.08-59.98h-1.56c-1.97,6.59-4.28,13.98-6.93,22.19-2.66,8.21-5.43,16.29-8.32,24.27l-48.01,131.04h-27.39l-48.01-131.04c-2.89-7.97-5.66-16.06-8.32-24.27-2.66-8.2-4.97-15.6-6.93-22.19h-1.56c1.39,21.38,2.08,41.31,2.08,59.8v117.7h-42.47v-231.93h59.28l40.04,110.42c6.7,18.37,13,38.13,18.89,59.28h1.04Z"/>
      <path class="cls-1" d="M1220.64,897.77h44.55v231.93h-42.47v-106.78c0-13.29,.69-34.72,2.08-64.31h-.69c-7.97,13.52-21.84,34.38-41.6,62.58l-75.58,108.51h-44.55v-231.93h42.47v106.78c0,16.99-.69,38.37-2.08,64.14h.69c7.39-12.25,21.03-32.7,40.91-61.36l76.27-109.55Z"/>
      <path class="cls-1" d="M1415.47,1129.7h-42.47v-196.39h-74.88v-35.53h192.06v35.53h-74.71v196.39Z"/>
    </g>
  </g>
  <g id="_Слой_10" data-name="Слой 10">
    <g>
      <path class="cls-1" d="M299.26,1623.39l-11.19-12.06,62.77-58.28,10.67,11.49-28.9,26.83c-3.6,3.34-9.57,8.54-17.93,15.6l.17,.19c5.66-1.24,14.79-2.73,27.39-4.46l48.35-6.81,11.19,12.05-62.77,58.28-10.67-11.49,28.9-26.83c4.6-4.27,10.56-9.45,17.88-15.55l-.17-.19c-5.17,1.08-14.13,2.53-26.88,4.35l-48.81,6.89Z"/>
      <path class="cls-1" d="M289.48,1556.57l-23.76-31.79-28.25,21.12-9.39-12.56,68.6-51.28,9.39,12.56-29.84,22.3,23.76,31.79,29.84-22.31,9.39,12.56-68.6,51.28-9.39-12.56,28.25-21.12Z"/>
      <path class="cls-1" d="M201.77,1469.38c2.22,3.65,4.86,6.65,7.94,9s6.43,3.93,10.07,4.74c3.64,.81,7.52,.81,11.65,0,4.13-.81,8.36-2.53,12.7-5.17,4.3-2.61,7.74-5.48,10.32-8.59,2.58-3.11,4.32-6.39,5.22-9.84,.9-3.44,.99-7.03,.25-10.75-.74-3.72-2.28-7.51-4.63-11.38-1.68-2.77-3.62-5.47-5.81-8.08-2.19-2.61-4.46-4.93-6.83-6.93l11.54-7.01c2.28,2.11,4.53,4.51,6.74,7.21,2.21,2.7,4.28,5.63,6.21,8.81,3.77,6.2,6.2,12.19,7.29,17.97s.98,11.23-.33,16.34c-1.31,5.12-3.74,9.83-7.28,14.16-3.54,4.32-8.03,8.13-13.46,11.44-5.58,3.39-11.27,5.69-17.08,6.9-5.81,1.21-11.43,1.28-16.87,.21-5.44-1.06-10.62-3.38-15.54-6.96-4.92-3.58-9.24-8.38-12.95-14.41-1.88-3.1-3.46-6.16-4.72-9.19s-2.19-5.88-2.78-8.58l11.38-6.91c.86,3.47,1.87,6.58,3.04,9.31,1.17,2.74,2.48,5.31,3.94,7.72Z"/>
      <path class="cls-1" d="M233.04,1370.87l6.95,14.06-65.01,32.15,12.26,24.79-11.76,5.82-31.44-63.57,11.76-5.82,12.23,24.73,65.01-32.15Z"/>
      <path class="cls-1" d="M115.89,1312.53l-5.82-15.39,80.11-30.29,5.55,14.67-36.88,13.95c-4.59,1.74-12.08,4.3-22.48,7.68l.09,.24c5.71,.99,14.73,3.05,27.05,6.2l47.35,11.93,5.82,15.39-80.11,30.29-5.55-14.67,36.88-13.95c5.87-2.22,13.34-4.77,22.42-7.66l-.09-.24c-5.2-.95-14.04-2.99-26.54-6.11l-47.8-12.04Z"/>
      <path class="cls-1" d="M175.89,1215.37l4.08,15.14-70.02,18.89,7.2,26.7-12.67,3.42-18.47-68.48,12.67-3.42,7.19,26.64,70.02-18.89Z"/>
      <path class="cls-1" d="M140.29,1144.38c4.28,1.2,7.97,2.59,11.06,4.17,3.09,1.58,5.69,3.43,7.8,5.55,2.1,2.12,3.78,4.56,5.02,7.31,1.24,2.75,2.17,5.91,2.8,9.48,.24,1.39,.44,2.94,.59,4.64,.15,1.71,.18,3.33,.1,4.86l-13.18,2.31c.1-1.66,.1-3.25,.01-4.75-.09-1.5-.24-2.86-.45-4.08-.34-1.93-.85-3.64-1.55-5.12-.69-1.48-1.68-2.8-2.97-3.96-1.29-1.16-2.94-2.2-4.97-3.13-2.02-.92-4.55-1.77-7.59-2.54l-53.07,43.16-3-17.15,39.04-31.28-46.67-12.29-2.94-16.77,69.98,19.58Z"/>
      <path class="cls-1" d="M151.05,1065.49l1.31,15.63-72.27,6.07,2.31,27.56-13.08,1.1-5.94-70.68,13.08-1.1,2.31,27.49,72.27-6.07Z"/>
      <path class="cls-1" d="M131.28,902.6c-6.49-2.62-13.42-5.73-20.79-9.35l-39.06-19.26,2.46-21.88,85.11,9.55-1.75,15.58-43.13-4.84c-6.32-.71-13.63-1.79-21.92-3.23l-.06,.57c2.33,.99,4.96,2.15,7.86,3.46,2.9,1.31,5.76,2.67,8.56,4.05l46.12,23.01-1.13,10.05-50.07,12.23c-3.04,.73-6.13,1.42-9.25,2.05-3.12,.64-5.93,1.18-8.43,1.63l-.06,.57c7.9,.37,15.25,.94,22.03,1.7l43.19,4.84-1.75,15.58-85.11-9.55,2.44-21.75,42.17-10.15c7.02-1.7,14.53-3.2,22.53-4.49l.04-.38Z"/>
      <path class="cls-1" d="M152.16,791.19l-7.13,31.46,19.44,13-3.69,16.29-76.02-52.07,3.17-13.98,91.04-14.23-3.66,16.17-23.14,3.36Zm-45.73,6.31c8.08,4.9,14.79,9.16,20.14,12.78l6.79,4.54,4.89-21.59-8.08,1.17c-6.43,.92-14.33,1.87-23.68,2.85l-.06,.25Z"/>
      <path class="cls-1" d="M193.17,728.72l-4.87,14.91-68.95-22.5-8.58,26.29-12.48-4.07,22-67.42,12.47,4.07-8.56,26.23,68.95,22.5Z"/>
      <path class="cls-1" d="M199.75,673.37l16.46-38.77,12.08,5.13-22.59,53.21-78.83-33.48,21.69-51.08,12.08,5.13-15.56,36.65,20.39,8.66,13.36-31.46,12.08,5.13-13.36,31.46,22.21,9.43Z"/>
      <path class="cls-1" d="M235.29,576.79c-4.98-4.91-10.18-10.46-15.58-16.63l-28.64-32.81,10.69-19.25,74.88,41.57-7.61,13.71-37.94-21.07c-5.56-3.09-11.89-6.89-18.99-11.42l-.28,.5c1.77,1.82,3.75,3.89,5.92,6.22,2.17,2.33,4.29,4.67,6.34,7.04l33.7,38.99-4.91,8.84-50.92-7.99c-3.09-.5-6.2-1.05-9.33-1.66-3.13-.61-5.93-1.19-8.41-1.74l-.28,.5c7.15,3.38,13.71,6.73,19.68,10.05l38,21.1-7.61,13.71-74.88-41.58,10.63-19.14,42.83,6.86c7.13,1.13,14.64,2.64,22.53,4.53l.19-.34Z"/>
      <path class="cls-1" d="M297.47,482.06l-18.7,26.28,12.92,19.49-9.69,13.61-50.08-77.35,8.31-11.68,89.49,21.95-9.61,13.51-22.65-5.82Zm-44.63-11.8c5.56,7.63,10.12,14.15,13.66,19.55l4.51,6.8,12.83-18.04-7.91-2.03c-6.29-1.63-13.94-3.79-22.95-6.49l-.15,.21Z"/>
      <path class="cls-1" d="M359.37,440.17l-10.23,11.89-54.99-47.29-18.03,20.97-9.95-8.56,46.25-53.77,9.95,8.56-17.99,20.92,54.99,47.29Z"/>
      <path class="cls-1" d="M367.23,309.58l11.88-11.38,59.23,61.87-11.33,10.84-27.27-28.48c-3.39-3.54-8.68-9.44-15.87-17.68l-.19,.18c1.33,5.64,2.95,14.75,4.88,27.32l7.55,48.25-11.88,11.38-59.23-61.87,11.33-10.85,27.27,28.48c4.34,4.53,9.61,10.41,15.82,17.64l.19-.18c-1.16-5.16-2.74-14.09-4.76-26.82l-7.63-48.7Z"/>
      <path class="cls-1" d="M452.44,348.3l-52.66-67.55,12.37-9.64,23.97,30.74,.2-.16,1.53-50.62,15.35-11.96-2.08,55.43,57.06,10.3-15.85,12.36-51.08-9.2-.2,.16,23.77,30.49-12.37,9.64Z"/>
      <path class="cls-1" d="M520.42,195.55l13.93-8.75,45.54,72.54-13.28,8.34-20.96-33.4c-2.61-4.16-6.6-11-11.98-20.52l-.22,.14c.16,5.79-.08,15.04-.73,27.74l-2.33,48.78-13.93,8.75-45.54-72.54,13.28-8.34,20.96,33.4c3.33,5.31,7.32,12.14,11.94,20.47l.22-.14c-.09-5.28,.16-14.36,.75-27.22l2.35-49.24Z"/>
      <path class="cls-1" d="M691.72,115.51l15.41-5.77,30.03,80.21-14.69,5.5-13.83-36.93c-1.72-4.6-4.26-12.1-7.61-22.51l-.24,.09c-1.01,5.71-3.1,14.72-6.29,27.03l-12.09,47.31-15.41,5.77-30.03-80.21,14.69-5.5,13.83,36.93c2.2,5.88,4.73,13.36,7.58,22.45l.24-.09c.97-5.19,3.04-14.03,6.2-26.52l12.19-47.76Z"/>
      <path class="cls-1" d="M875.75,71.65l16.25-2.54,13.2,84.62-15.5,2.42-6.08-38.96c-.76-4.85-1.72-12.71-2.9-23.58l-.25,.04c-2.14,5.39-6.01,13.79-11.62,25.2l-21.4,43.89-16.26,2.54-13.2-84.62,15.5-2.42,6.08,38.96c.97,6.2,1.93,14.04,2.89,23.52l.25-.04c2-4.89,5.81-13.13,11.43-24.72l21.59-44.31Z"/>
      <path class="cls-1" d="M936.61,100.94l39.64-1.89-1.68-35.23,15.66-.75,4.07,85.55-15.66,.75-1.77-37.21-39.64,1.89,1.77,37.21-15.67,.75-4.07-85.55,15.67-.75,1.68,35.23Z"/>
      <path class="cls-1" d="M1066.83,59.05l-.8,11.43c5.83,1.05,10.94,2.79,15.32,5.24,4.39,2.45,7.99,5.45,10.83,9,2.83,3.56,4.89,7.58,6.19,12.08,1.29,4.5,1.76,9.3,1.4,14.41-.36,5.15-1.46,9.87-3.3,14.14-1.84,4.28-4.4,7.97-7.7,11.08-3.3,3.11-7.29,5.57-11.97,7.38-4.68,1.81-10.04,2.81-16.09,2.99l-.79,11.3-15.39-1.07,.79-11.3c-5.96-1.01-11.13-2.74-15.52-5.19-4.39-2.44-8-5.43-10.83-8.97-2.83-3.53-4.86-7.55-6.09-12.04-1.23-4.49-1.66-9.31-1.3-14.46,.36-5.11,1.49-9.8,3.39-14.07,1.9-4.27,4.5-7.97,7.8-11.1,3.3-3.13,7.29-5.6,11.97-7.41,4.68-1.81,9.98-2.83,15.9-3.06l.8-11.43,15.39,1.07Zm-39.34,47.05c-.27,3.92-.01,7.42,.78,10.51,.79,3.09,2,5.78,3.64,8.05,1.64,2.27,3.67,4.15,6.09,5.62,2.42,1.47,5.15,2.55,8.18,3.23l3.62-51.92c-3.1,.25-5.95,.94-8.55,2.07-2.6,1.12-4.87,2.7-6.81,4.72-1.94,2.03-3.51,4.5-4.72,7.44-1.21,2.93-1.95,6.36-2.22,10.27Zm56.39,3.93c.27-3.92,.01-7.41-.78-10.48-.79-3.07-2.01-5.74-3.64-8.02-1.64-2.27-3.67-4.15-6.09-5.62-2.42-1.47-5.15-2.55-8.18-3.23l-3.62,51.92c3.1-.25,5.95-.94,8.55-2.07,2.6-1.12,4.87-2.7,6.81-4.72,1.94-2.03,3.51-4.51,4.72-7.47,1.21-2.95,1.95-6.39,2.23-10.3Z"/>
      <path class="cls-1" d="M1196.91,127.28c-1.13,6.43-3.07,12.17-5.84,17.21-2.77,5.04-6.25,9.18-10.43,12.44-4.19,3.25-9.02,5.5-14.51,6.75-5.48,1.25-11.48,1.3-18,.16s-12.14-3.23-16.87-6.27-8.52-6.8-11.35-11.28c-2.83-4.48-4.69-9.56-5.58-15.24-.89-5.68-.77-11.73,.36-18.17,1.13-6.43,3.07-12.17,5.84-17.21,2.77-5.04,6.25-9.18,10.43-12.44,4.19-3.25,9.02-5.5,14.5-6.75,5.48-1.25,11.48-1.3,18-.16,6.51,1.14,12.14,3.23,16.87,6.27,4.73,3.04,8.51,6.8,11.35,11.28,2.83,4.48,4.69,9.56,5.58,15.24,.89,5.68,.77,11.73-.36,18.17Zm-15.95-2.79c.9-5.13,1.05-9.73,.47-13.79-.59-4.07-1.77-7.58-3.55-10.53-1.78-2.95-4.09-5.33-6.94-7.13-2.85-1.8-6.1-3.02-9.76-3.66-3.66-.64-7.13-.6-10.42,.12-3.29,.72-6.27,2.17-8.95,4.34-2.68,2.17-4.98,5.07-6.92,8.7-1.94,3.62-3.35,8-4.25,13.13-.9,5.13-1.05,9.73-.47,13.79s1.77,7.57,3.55,10.5c1.78,2.93,4.1,5.31,6.94,7.13,2.84,1.82,6.09,3.05,9.75,3.69,3.66,.64,7.13,.59,10.43-.16,3.29-.74,6.28-2.19,8.95-4.35,2.67-2.15,4.98-5.04,6.91-8.67,1.93-3.63,3.35-8,4.25-13.13Z"/>
      <path class="cls-1" d="M1235.29,147.77c-1.36-.38-2.69-.78-3.99-1.19s-2.51-.84-3.63-1.29l-9.06,32.23-15.1-4.24,23.17-82.45,23.79,6.68c3.98,1.12,7.42,2.27,10.3,3.46,2.88,1.19,5.39,2.46,7.54,3.81,5.14,3.31,8.7,7.28,10.68,11.91,1.98,4.63,2.15,9.87,.51,15.7-1.12,3.99-2.95,7.34-5.49,10.06-2.54,2.72-5.7,4.75-9.49,6.08-3.79,1.33-8.13,1.95-13.02,1.86-4.9-.09-10.3-.97-16.22-2.63Zm-4.05-15.17c.83,.37,1.9,.77,3.22,1.2,1.32,.44,2.7,.86,4.13,1.26,4.07,1.14,7.57,1.77,10.51,1.89,2.94,.12,5.41-.17,7.43-.87,2.01-.7,3.62-1.78,4.83-3.23,1.21-1.46,2.09-3.17,2.64-5.14,.68-2.42,.71-4.67,.1-6.75-.61-2.08-2.16-4-4.63-5.76-1.3-.9-2.98-1.76-5.03-2.58s-4.62-1.66-7.7-2.53l-8.5-2.39-7,24.9Z"/>
      <path class="cls-1" d="M1326.54,189.25c4.25-5.56,9.11-11.4,14.56-17.54l28.99-32.51,20.43,8.21-31.92,79.48-14.55-5.84,16.17-40.27c2.37-5.9,5.36-12.66,8.97-20.27l-.54-.21c-1.58,1.99-3.39,4.2-5.43,6.65s-4.1,4.84-6.19,7.17l-34.49,38.3-9.38-3.77,1.58-51.51c.11-3.13,.27-6.28,.49-9.46s.44-6.03,.68-8.56l-.54-.21c-2.47,7.52-4.97,14.44-7.52,20.78l-16.2,40.33-14.55-5.84,31.92-79.48,20.31,8.16-1.47,43.35c-.23,7.22-.79,14.86-1.68,22.92l.36,.14Z"/>
      <path class="cls-1" d="M1428.29,239.17l-28.4-15.29-17.73,15.24-14.71-7.92,70.53-59.3,12.62,6.8-10.68,91.52-14.6-7.86,2.96-23.2Zm6.17-45.75c-6.88,6.47-12.79,11.79-17.7,15.98l-6.19,5.32,19.49,10.5,1.04-8.1c.83-6.44,2.03-14.3,3.59-23.58l-.23-.12Z"/>
      <path class="cls-1" d="M1498.62,309.81l-50.27-34.21,48.19-70.8,12.97,8.82-40.81,59.96,28.89,19.66,40.8-59.96,12.97,8.82-40.81,59.96,8.42,5.73-23.34,34.29-12.97-8.82,15.95-23.44Z"/>
      <path class="cls-1" d="M1624,300.97l12.52,10.67-55.57,65.17-11.93-10.17,25.58-30c3.18-3.73,8.51-9.59,15.99-17.57l-.2-.17c-5.48,1.89-14.37,4.43-26.68,7.62l-47.24,12.38-12.52-10.67,55.57-65.17,11.93,10.18-25.58,30c-4.07,4.77-9.39,10.61-15.95,17.52l.19,.17c5.01-1.67,13.75-4.15,26.2-7.44l47.68-12.51Z"/>
      <path class="cls-1" d="M1679.9,417.92c-4.75,4.48-9.75,7.91-14.98,10.29-5.23,2.38-10.5,3.62-15.8,3.72-5.3,.1-10.52-.99-15.66-3.27-5.14-2.28-9.98-5.83-14.51-10.64-4.54-4.82-7.79-9.86-9.76-15.12-1.97-5.27-2.75-10.54-2.33-15.83,.41-5.29,1.96-10.47,4.65-15.55,2.69-5.08,6.41-9.86,11.16-14.34,4.75-4.48,9.75-7.91,14.98-10.29s10.5-3.62,15.8-3.72c5.3-.1,10.52,.99,15.66,3.27,5.14,2.28,9.98,5.83,14.51,10.64,4.54,4.81,7.79,9.85,9.76,15.12,1.97,5.27,2.75,10.54,2.34,15.83-.42,5.29-1.96,10.47-4.65,15.55-2.69,5.08-6.41,9.86-11.16,14.34Zm-11.11-11.79c3.79-3.57,6.67-7.16,8.63-10.77,1.96-3.61,3.12-7.13,3.46-10.56,.34-3.43-.09-6.72-1.29-9.87-1.21-3.14-3.08-6.07-5.62-8.77-2.55-2.7-5.35-4.75-8.42-6.14-3.07-1.39-6.33-2.01-9.77-1.88-3.45,.14-7.03,1.08-10.75,2.83s-7.48,4.4-11.26,7.97c-3.79,3.57-6.67,7.16-8.63,10.77-1.96,3.61-3.11,7.12-3.44,10.54s.1,6.71,1.29,9.87c1.19,3.16,3.06,6.09,5.6,8.79,2.54,2.7,5.36,4.74,8.44,6.12,3.08,1.37,6.34,2,9.77,1.88,3.43-.12,7.01-1.06,10.73-2.8,3.72-1.75,7.47-4.4,11.26-7.97Z"/>
      <path class="cls-1" d="M1707.41,440.56l23.98,31.62,28.11-21.31,9.48,12.5-68.25,51.75-9.47-12.5,29.69-22.51-23.98-31.62-29.69,22.51-9.48-12.5,68.25-51.74,9.48,12.5-28.11,21.31Z"/>
      <path class="cls-1" d="M1762.2,517.57l20.55,33.95,30.17-18.26,8.12,13.42-73.27,44.35-8.12-13.42,31.87-19.29-20.55-33.95-31.87,19.29-8.12-13.42,73.27-44.35,8.12,13.42-30.17,18.26Z"/>
      <path class="cls-1" d="M1841.11,585.39l-30.21,13.82c1.55,2.67,3.04,5.58,4.48,8.72,1.24,2.72,2.31,5.31,3.21,7.79,.9,2.48,1.63,4.9,2.2,7.27,.93,3.98,1.34,7.62,1.23,10.91-.11,3.29-.71,6.24-1.8,8.85-1.08,2.61-2.61,4.88-4.59,6.82-1.98,1.94-4.36,3.54-7.16,4.82-2.6,1.19-5.26,1.91-7.98,2.17-2.72,.26-5.44,.03-8.17-.7-2.72-.72-5.4-1.96-8.03-3.72-2.63-1.75-5.16-4.04-7.58-6.88-1.74-2.07-3.48-4.56-5.22-7.5-1.74-2.93-3.56-6.48-5.46-10.63l-9.32-20.37,77.89-35.63,6.52,14.26Zm-65.95,30.17l3.33,7.28c1.33,2.91,2.65,5.48,3.94,7.7,1.3,2.22,2.67,4.08,4.1,5.58,2.1,2.23,4.38,3.73,6.85,4.5,2.46,.77,5.07,.53,7.83-.73,2.76-1.26,4.67-3.18,5.74-5.76,1.07-2.58,1.14-5.98,.2-10.19-.37-1.62-.9-3.35-1.6-5.18-.7-1.84-1.49-3.71-2.36-5.61-1.44-3.14-2.91-5.94-4.41-8.4l-23.63,10.81Zm12.11,58.02l77.88-35.63,6.53,14.26-77.89,35.63-6.52-14.26Z"/>
      <path class="cls-1" d="M1871.44,705.21c-4.42,5.81-7.61,9.92-9.56,12.31l.1,.3c4.12,1.07,9.1,2.46,14.92,4.19l20.6,6.09,5.64,17.15-49.33-15.17-31.62,43.16-5.56-16.9,14-18.69c3.43-4.59,6.7-8.85,9.81-12.8l-.08-.24c-5.04-1.4-10.21-2.89-15.49-4.47l-22.36-6.72-5.56-16.9,51.07,15.94,30.68-41.5,5.64,17.15-12.9,17.12Z"/>
      <path class="cls-1" d="M1844.36,885.94l-2.25-15.52,71.78-10.38-3.96-27.37,12.99-1.88,10.15,70.19-12.99,1.88-3.95-27.31-71.78,10.38Z"/>
      <path class="cls-1" d="M1863,938.46l2.45,42.05-13.1,.76-3.35-57.71,85.5-4.97,3.22,55.4-13.1,.76-2.31-39.75-22.11,1.29,1.98,34.12-13.1,.76-1.98-34.12-24.09,1.4Z"/>
      <path class="cls-1" d="M1919.85,1020.78c-6.14,3.95-10.54,6.71-13.2,8.29v.32c3.5,2.42,7.7,5.43,12.58,9.04l17.27,12.78-.57,18.04-41.16-31.14-44.49,29.72,.56-17.79,19.55-12.77c4.79-3.14,9.33-6.02,13.59-8.67v-.25c-4.25-3.04-8.59-6.21-13.01-9.5l-18.71-13.98,.56-17.79,42.53,32.47,43.04-28.49-.57,18.04-17.98,11.67Z"/>
      <path class="cls-1" d="M1897.22,1099.31l-5.15,39.35,34.97,4.58-2.03,15.55-84.92-11.12,2.04-15.55,36.94,4.84,5.15-39.35-36.94-4.83,2.04-15.55,84.92,11.12-2.03,15.55-34.97-4.58Z"/>
      <path class="cls-1" d="M1859.75,1253.09c-6.35-1.54-11.95-3.85-16.8-6.93-4.85-3.08-8.76-6.82-11.74-11.21-2.98-4.39-4.91-9.36-5.81-14.91s-.56-11.54,.99-17.97c1.56-6.43,4-11.91,7.34-16.43,3.33-4.53,7.33-8.06,11.98-10.6,4.66-2.54,9.85-4.07,15.57-4.59,5.73-.52,11.76-.02,18.11,1.52,6.35,1.54,11.95,3.85,16.8,6.93s8.76,6.82,11.74,11.21c2.98,4.39,4.91,9.36,5.81,14.91s.56,11.54-.99,17.97c-1.56,6.43-4,11.91-7.34,16.43-3.34,4.53-7.33,8.06-11.99,10.6-4.66,2.54-9.85,4.07-15.57,4.59-5.72,.52-11.76,.02-18.11-1.52Zm3.81-15.74c5.06,1.22,9.64,1.68,13.73,1.35,4.1-.32,7.67-1.28,10.74-2.87,3.06-1.59,5.58-3.74,7.56-6.47,1.98-2.73,3.4-5.89,4.28-9.5,.87-3.61,1.06-7.08,.54-10.41-.51-3.33-1.77-6.4-3.76-9.21-2-2.81-4.74-5.3-8.24-7.46-3.49-2.16-7.77-3.86-12.83-5.08-5.06-1.23-9.64-1.68-13.74-1.35-4.1,.32-7.67,1.28-10.71,2.87-3.04,1.59-5.56,3.75-7.56,6.47-2,2.72-3.43,5.89-4.31,9.5-.87,3.61-1.05,7.08-.51,10.41,.53,3.33,1.79,6.4,3.76,9.21,1.98,2.81,4.71,5.29,8.21,7.45,3.49,2.16,7.77,3.86,12.83,5.08Z"/>
      <path class="cls-1" d="M1870.39,1313.23c-9.05-4.73-16.89-9.08-23.52-13.03-6.63-3.96-12.23-7.64-16.79-11.04-4.56-3.4-8.19-6.58-10.87-9.53-2.68-2.95-4.63-5.8-5.85-8.55-1.22-2.75-1.78-5.44-1.7-8.08,.09-2.64,.64-5.41,1.68-8.31,.79-2.21,1.77-4.17,2.92-5.89l13.2,4.72c-.88,1.32-1.57,2.68-2.07,4.08-.56,1.57-.81,3.05-.74,4.46,.06,1.41,.57,2.92,1.53,4.56,.96,1.63,2.63,3.61,5.01,5.94,2.39,2.33,5.86,5.06,10.42,8.21,4.56,3.15,10.37,6.76,17.44,10.83,7.06,4.07,15.74,8.71,26.02,13.93l-15.37,42.97-80.65-28.84,5.28-14.77,68.29,24.42,5.75-16.09Z"/>
      <path class="cls-1" d="M1788.2,1426.94c-5.88-2.84-10.87-6.27-14.96-10.31-4.09-4.04-7.14-8.51-9.12-13.43-1.99-4.92-2.84-10.18-2.54-15.8,.29-5.62,1.88-11.4,4.75-17.36,2.88-5.96,6.42-10.8,10.63-14.52,4.21-3.72,8.86-6.34,13.94-7.84,5.08-1.5,10.48-1.91,16.19-1.22,5.71,.69,11.5,2.46,17.38,5.29s10.87,6.27,14.96,10.31c4.09,4.04,7.14,8.51,9.12,13.43s2.84,10.18,2.54,15.8c-.29,5.62-1.88,11.4-4.75,17.36-2.87,5.96-6.42,10.8-10.63,14.52-4.21,3.72-8.86,6.34-13.95,7.84-5.08,1.5-10.48,1.91-16.19,1.22-5.71-.69-11.5-2.46-17.38-5.29Zm7.04-14.59c4.69,2.26,9.07,3.66,13.14,4.21,4.07,.54,7.77,.36,11.1-.54,3.33-.91,6.25-2.48,8.75-4.73,2.51-2.25,4.57-5.05,6.18-8.39,1.61-3.34,2.52-6.7,2.72-10.06,.2-3.36-.38-6.63-1.74-9.79-1.36-3.17-3.52-6.18-6.48-9.03-2.96-2.85-6.79-5.41-11.47-7.67-4.69-2.26-9.07-3.67-13.14-4.21s-7.76-.36-11.07,.56c-3.31,.92-6.22,2.49-8.75,4.73-2.53,2.24-4.6,5.03-6.21,8.38-1.61,3.34-2.51,6.7-2.69,10.07-.18,3.37,.4,6.64,1.74,9.79,1.34,3.16,3.5,6.16,6.46,9.01s6.79,5.41,11.48,7.67Z"/>
      <path class="cls-1" d="M1741.95,1420.79l73.23,44.41-30.07,49.59-11.22-6.8,21.94-36.18-62.01-37.61,8.13-13.41Z"/>
      <path class="cls-1" d="M1740.17,1576.94l-9.82,13.2-68.7-51.14,9.37-12.58,31.63,23.55c3.94,2.93,10.13,7.86,18.59,14.8l.15-.21c-2.25-5.34-5.37-14.05-9.36-26.12l-15.48-46.32,9.82-13.2,68.7,51.14-9.36,12.58-31.63-23.54c-5.03-3.75-11.21-8.67-18.54-14.76l-.15,.21c2,4.89,5.05,13.44,9.15,25.65l15.63,46.75Z"/>
      <path class="cls-1" d="M1672.95,1654.09l-11.2,12.05-62.74-58.3,10.68-11.49,28.88,26.84c3.59,3.34,9.22,8.92,16.87,16.73l.17-.19c-1.65-5.56-3.81-14.55-6.47-26.98l-10.35-47.72,11.2-12.05,62.74,58.3-10.68,11.49-28.88-26.84c-4.6-4.27-10.21-9.83-16.83-16.69l-.17,.19c1.45,5.08,3.56,13.91,6.32,26.49l10.46,48.17Zm28.56-.55c-4.59,4.94-3.86,11.18,2.18,18.72l-10.07,10.83c-2.61-2.83-4.64-5.79-6.1-8.86-1.46-3.07-2.25-6.21-2.38-9.42s.45-6.44,1.75-9.69,3.39-6.42,6.26-9.51c2.91-3.13,5.92-5.44,9.03-6.94,3.12-1.5,6.26-2.28,9.43-2.34,3.17-.06,6.33,.54,9.49,1.78s6.24,3.06,9.26,5.46l-10.06,10.83c-4-2.72-7.54-4.18-10.62-4.37-3.09-.19-5.81,.98-8.16,3.51Z"/>
    </g>
    <circle class="cls-1" cx="1556.56" cy="1716.76" r="15.73"/>
    <circle class="cls-1" cx="443.44" cy="1716.76" r="15.73"/>
    <g>
      <path class="cls-1" d="M945.3,1859.79h16.45v85.65h-15.68v-39.43c0-4.91,.26-12.82,.77-23.75h-.26c-2.94,4.99-8.07,12.7-15.36,23.11l-27.91,40.07h-16.45v-85.65h15.68v39.43c0,6.27-.26,14.17-.77,23.68h.26c2.73-4.52,7.77-12.08,15.11-22.66l28.17-40.46Z"/>
      <path class="cls-1" d="M982.24,1945.44v-85.65h58v13.12h-42.31v72.53h-15.68Z"/>
      <path class="cls-1" d="M1090.74,1925.34c-1.92,4.01-3.93,7.41-6.02,10.18-2.09,2.77-4.36,5.01-6.82,6.72-2.46,1.71-5.14,2.94-8.07,3.68s-6.2,1.12-9.83,1.12c-1.41,0-2.97-.08-4.67-.22s-3.31-.39-4.8-.74v-13.38c1.62,.38,3.18,.66,4.67,.83,1.49,.17,2.86,.26,4.1,.26,1.96,0,3.73-.21,5.31-.64,1.58-.43,3.05-1.17,4.42-2.24,1.37-1.07,2.68-2.52,3.94-4.35s2.53-4.18,3.81-7.04l-33.35-59.72h17.41l24.07,43.85,20.17-43.85h17.03l-31.37,65.55Z"/>
    </g>
  </g>
</svg>